<svg width="164" height="50" viewBox="0 0 164 50" fill="none" xmlns="http://www.w3.org/2000/svg">
<path d="M30.5352 34.1177C29.5814 34.1177 28.6628 34.595 27.9926 35.4546L22.5393 42.3521C22.4315 42.4885 22.2581 42.4885 22.1503 42.3521L18.3164 37.5028C17.8735 36.9426 17.3088 36.5395 16.6901 36.4417C15.8441 36.3054 15.0333 36.6611 14.4475 37.405L9.845 43.2176H6.84541C6.17286 43.2176 5.60338 43.8163 5.54949 44.584C5.51903 45.0168 5.62683 45.4347 5.85648 45.7607C6.08379 46.0808 6.4095 46.2617 6.74466 46.2617H9.3482C10.302 46.2617 11.2206 45.7844 11.8908 44.9248L16.1441 39.545C16.2519 39.4087 16.4253 39.4087 16.5331 39.545L20.5287 44.5988C21.5316 45.8674 23.151 45.8674 24.1516 44.5988L30.0358 37.1562H36.6349C37.3075 37.1562 37.8769 36.5574 37.9308 35.7898C37.9613 35.3511 37.8535 34.9331 37.6238 34.6131C37.3965 34.2929 37.0708 34.1121 36.7357 34.1121H30.5325L30.5352 34.1177Z" fill="#CCD5AE"/>
<path d="M36.3797 7.59639C34.6169 5.18615 32.2342 3.81481 29.6773 3.74713C26.6419 3.65002 23.8422 5.28333 21.9378 8.22916L21.0022 9.67703L20.0666 8.22916C18.2213 5.37455 15.511 3.73834 12.6452 3.73834H12.3365C9.77949 3.81486 7.40156 5.16857 5.63866 7.55822C3.75565 10.1038 2.7729 13.5764 2.93549 17.0872C3.11696 21.0866 4.17275 24.8683 5.97566 28.0407C6.37395 28.7352 6.83821 29.4798 7.40618 30.3244C7.81154 30.9276 8.62459 31.0188 9.10774 30.5127C9.3552 30.2567 9.50603 29.8888 9.53666 29.4886C9.5673 29.0884 9.46361 28.697 9.25857 28.388C8.72831 27.6052 8.2994 26.9195 7.94827 26.2927C6.40935 23.5882 5.51141 20.348 5.35354 16.9137C5.22628 14.218 5.98044 11.5489 7.42273 9.60659C8.73776 7.82027 10.5124 6.81087 12.4119 6.75788C14.6507 6.65194 16.7553 7.88795 18.2047 10.1245L20.0807 13.0174C20.5402 13.7266 21.4994 13.7266 21.9566 13.0174L23.8325 10.1245C25.2677 7.90264 27.3675 6.67545 29.6369 6.75788C31.5317 6.81085 33.2993 7.82906 34.6143 9.62718C36.0754 11.6224 36.8226 14.3505 36.6717 17.1227C36.5445 19.3534 36.1156 21.484 35.392 23.4498C35.2601 23.8118 35.2412 24.2267 35.3567 24.6034C35.4651 24.9801 35.689 25.2802 35.9836 25.448C36.5869 25.7952 37.3057 25.4627 37.5814 24.7093C38.4322 22.405 38.9318 19.9242 39.078 17.3256C39.2759 13.7382 38.3002 10.1923 36.3984 7.59068L36.3797 7.59639Z" fill="#CCD5AE"/>
<g clip-path="url(#clip0_5_12)">
<path d="M66.5392 29.3452V39.5576H61.7744V12.3624H72.3576V18.259H66.5392V23.4486H71.9045V29.3452H66.5392Z" fill="#CCD5AE" stroke="#CCD5AE" stroke-width="0.944882" stroke-linecap="round"/>
<path d="M75.0402 18.4823H79.8294V39.5575H75.0402V18.4823ZM78.36 10.1433C78.6707 10.2455 78.9698 10.4165 79.2477 10.6509C79.6778 11.0169 79.9266 11.6866 79.9944 12.6599C80.0073 12.8515 80.0136 13.044 80.0132 13.2366C80.0132 14.489 79.758 15.3353 79.2477 15.7756C78.8924 16.078 78.5033 16.2778 78.1 16.3652C77.8859 16.4134 77.6696 16.4371 77.4531 16.4361C77.1736 16.4385 76.8945 16.3991 76.62 16.3185C76.2817 16.2208 75.9567 16.0373 75.6586 15.7756C75.1646 15.3353 74.9176 14.489 74.9176 13.2366C74.9161 12.931 74.9326 12.6258 74.9668 12.3247C75.0051 12.0031 75.0657 11.7201 75.1487 11.4756C75.262 11.1311 75.4393 10.8444 75.6586 10.6509C75.9572 10.3928 76.2822 10.212 76.62 10.1161C76.8946 10.0366 77.1736 9.99767 77.4531 9.99992C77.758 9.99732 78.0621 10.0454 78.36 10.1433Z" fill="#CCD5AE" stroke="#CCD5AE" stroke-width="0.944882" stroke-linecap="round"/>
<path d="M92.2869 33.4562V38.7576C91.7507 39.1117 91.1954 39.3948 90.6271 39.6038C90.3936 39.6888 90.1571 39.754 89.9188 39.7991C89.4743 39.886 88.9653 39.9295 88.3917 39.9295C87.9921 39.9321 87.593 39.885 87.1985 39.7886C86.7929 39.69 86.396 39.5219 86.0154 39.2876C85.3724 38.8862 84.836 38.1705 84.4911 37.2538C84.4655 37.1885 84.4407 37.1225 84.4168 37.0557C84.2652 36.6221 84.1486 36.1623 84.0696 35.6862C83.9214 34.8275 83.8473 33.8051 83.8473 32.6191V23.9324H82.1691V20.9748L84.3004 18.6867L85.5375 14.26H88.6733V18.4824H92.0787V23.9324H88.6733V32.1357C88.6724 32.331 88.6833 32.5259 88.7059 32.7181C88.7318 32.9302 88.7732 33.1191 88.83 33.2848C88.8783 33.4273 88.9412 33.5574 89.0163 33.67C89.2337 33.9945 89.5324 34.1646 89.9125 34.1805C89.9323 34.1812 89.952 34.1815 89.9718 34.1814C90.2027 34.1825 90.4334 34.1611 90.6626 34.1176C90.83 34.0857 90.9961 34.0387 91.1599 33.9772C91.3928 33.8882 91.6238 33.7883 91.8526 33.6776C91.9982 33.6075 92.1429 33.5337 92.2869 33.4562Z" fill="#CCD5AE" stroke="#CCD5AE" stroke-width="0.944882" stroke-linecap="round"/>
<path d="M99.7588 29.3452V39.5576H94.994V12.3624H105.577V18.259H99.7588V23.4486H105.124V29.3452H99.7588Z" fill="#CCD5AE" stroke="#CCD5AE" stroke-width="0.944882" stroke-linecap="round"/>
<path d="M113.025 10.6138V39.5576H108.235V10.6138H113.025Z" fill="#CCD5AE" stroke="#CCD5AE" stroke-width="0.944882" stroke-linecap="round"/>
<path d="M129.492 31.3191C129.419 32.1165 129.295 32.9009 129.12 33.661C128.937 34.4569 128.688 35.2137 128.378 35.9129C128.188 36.338 127.973 36.736 127.736 37.1019C127.148 37.9996 126.442 38.6961 125.663 39.1448C125.623 39.1682 125.583 39.1911 125.543 39.2134C125.011 39.5051 124.46 39.7057 123.899 39.8115C123.481 39.8917 123.061 39.9312 122.64 39.9296C122.069 39.9334 121.499 39.8488 120.939 39.6772C120.578 39.5648 120.223 39.4097 119.878 39.2134C119.058 38.7531 118.313 38.0334 117.691 37.1019C117.181 36.3311 116.767 35.428 116.467 34.4353C116.389 34.1814 116.317 33.9231 116.252 33.661C116.055 32.8563 115.917 32.0211 115.841 31.1705C115.775 30.4425 115.742 29.7083 115.744 28.9734C115.741 28.0813 115.787 27.1904 115.882 26.31C116.017 25.0992 116.25 24.0153 116.583 23.0581C117.142 21.4461 117.942 20.2184 118.983 19.3753C120.025 18.5318 121.268 18.11 122.713 18.11C123.386 18.1039 124.057 18.2238 124.71 18.4672C125.251 18.6716 125.774 18.9766 126.266 19.3753C127.3 20.2139 128.149 21.4942 128.709 23.0581C129.034 23.9576 129.268 24.9265 129.402 25.9319C129.532 26.8669 129.597 27.8807 129.597 28.9734C129.599 29.7581 129.564 30.542 129.492 31.3191ZM120.728 31.4038C120.752 31.6091 120.781 31.8129 120.815 32.0148C120.86 32.2926 120.921 32.5642 120.997 32.8267C121.08 33.1137 121.179 33.3654 121.292 33.5819C121.35 33.6931 121.414 33.7972 121.482 33.8934C121.7 34.1948 121.97 34.3967 122.26 34.4757C122.402 34.5165 122.545 34.5364 122.689 34.5353C122.856 34.5372 123.023 34.5094 123.186 34.4524C123.446 34.3643 123.684 34.1711 123.877 33.8934C124.022 33.6791 124.143 33.4321 124.238 33.161C124.354 32.8349 124.448 32.4529 124.52 32.0148C124.573 31.6826 124.615 31.3462 124.643 31.0072C124.696 30.403 124.722 29.7251 124.722 28.9734C124.723 28.5539 124.713 28.1346 124.694 27.7162C124.663 27.0524 124.605 26.467 124.52 25.96C124.478 25.7 124.421 25.4455 124.352 25.1991C124.274 24.9245 124.182 24.6832 124.076 24.4753C124.014 24.3535 123.946 24.2404 123.871 24.1372C123.581 23.7391 123.193 23.5346 122.706 23.5238C122.692 23.5235 122.678 23.5234 122.664 23.5234C122.441 23.5189 122.219 23.5701 122.007 23.6748C121.63 23.8688 121.335 24.2488 121.121 24.8148C121.111 24.8428 121.1 24.8711 121.09 24.8996C120.974 25.2407 120.883 25.601 120.82 25.9734C120.698 26.6661 120.628 27.5019 120.611 28.481C120.608 28.6451 120.606 28.8092 120.606 28.9734C120.606 29.8943 120.647 30.7045 120.728 31.4038Z" fill="#CCD5AE" stroke="#CCD5AE" stroke-width="0.944882" stroke-linecap="round"/>
<path d="M149.392 39.5576H144.272L142.814 30.3314C142.778 30.0969 142.743 29.8616 142.711 29.6257C142.676 29.3781 142.642 29.1165 142.608 28.8409C142.603 28.8014 142.598 28.7619 142.593 28.7224C142.52 28.1184 142.448 27.5138 142.379 26.9086C142.346 26.6174 142.314 26.326 142.283 26.0343C142.254 25.7679 142.227 25.5012 142.201 25.2343C142.164 24.8451 142.134 24.5212 142.111 24.2628C142.104 24.1898 142.098 24.1168 142.091 24.0438H142.018C142.011 24.1224 142.004 24.201 141.996 24.2795C141.972 24.5363 141.938 24.8578 141.895 25.2438C141.838 25.7584 141.773 26.3257 141.699 26.9457C141.626 27.5657 141.546 28.1951 141.461 28.8338C141.419 29.1417 141.377 29.4494 141.334 29.7566C141.293 30.0415 141.252 30.3259 141.209 30.61L139.801 39.5576H134.766L130.981 18.4824H135.697L136.824 26.5738C136.857 26.8126 136.888 27.052 136.917 27.2919C136.943 27.5046 136.969 27.7287 136.996 27.9643C137.023 28.2105 137.05 28.457 137.075 28.7038C137.161 29.5282 137.239 30.3652 137.308 31.2147C137.337 31.5687 137.363 31.9231 137.386 32.2781C137.414 32.7117 137.435 33.1168 137.449 33.4933H137.523C137.53 33.2556 137.542 33.0183 137.557 32.7814C137.572 32.5386 137.591 32.2817 137.614 32.0109C137.622 31.9191 137.63 31.8274 137.639 31.7357C137.7 31.0722 137.77 30.4119 137.847 29.7547C137.879 29.4819 137.912 29.2092 137.945 28.9366C137.986 28.6049 138.025 28.2978 138.061 28.0152C138.076 27.9062 138.09 27.7971 138.104 27.6881C138.137 27.4373 138.162 27.2408 138.181 27.0986C138.186 27.06 138.191 27.0214 138.196 26.9828L139.482 18.4824H144.774L145.95 27.0947C145.969 27.2238 145.988 27.353 146.007 27.4824C146.062 27.8678 146.122 28.3184 146.187 28.8343C146.192 28.8712 146.196 28.9082 146.201 28.9452C146.273 29.5242 146.341 30.1044 146.405 30.6857C146.427 30.8867 146.449 31.0878 146.471 31.289C146.553 32.0751 146.615 32.7886 146.656 33.4295C146.658 33.4508 146.659 33.472 146.66 33.4933H146.734C146.762 32.9073 146.802 32.2525 146.854 31.529C146.863 31.4087 146.872 31.2884 146.881 31.1681C146.946 30.3001 147.022 29.4538 147.107 28.629C147.128 28.4314 147.149 28.2339 147.171 28.0366C147.233 27.4887 147.293 27.0144 147.353 26.6138C147.355 26.6005 147.357 26.5871 147.359 26.5738L148.583 18.4824H153.201L149.392 39.5576Z" fill="#CCD5AE" stroke="#CCD5AE" stroke-width="0.944882" stroke-linecap="round"/>
</g>
<defs>
<clipPath id="clip0_5_12">
<rect width="91.427" height="29.9295" fill="white" transform="translate(61.7744 10)"/>
</clipPath>
</defs>
</svg>
